<svg xmlns="http://www.w3.org/2000/svg" viewBox="0 0 557 320.23"><defs><style>.cls-1{fill:#f9f4f2;}.cls-2{fill:gray;stroke:#000;stroke-miterlimit:10;}.cls-3{fill:#ffffe4;}.cls-4{fill:#ccc;}.cls-5{fill:#fda79a;}.cls-6{fill:#ff868a;}</style></defs><title>aktivitet_2</title><g id="Lager_2" data-name="Lager 2"><g id="Lager_1-2" data-name="Lager 1"><rect class="cls-1" width="557" height="320.23"/><rect class="cls-2" x="179.5" y="78.69" width="200" height="175.36" rx="13.08"/><rect class="cls-3" x="193.27" y="96.65" width="173.91" height="152.49" rx="13.08"/><path class="cls-4" d="M224.43,97.53a9.68,9.68,0,0,1-5.8,1.45,9.57,9.57,0,0,1-4.35-1.45V58.4h10.15Z"/><path class="cls-4" d="M254.86,97.53A9.64,9.64,0,0,1,249.07,99a9.52,9.52,0,0,1-4.35-1.45V58.4h10.14Z"/><path class="cls-4" d="M286.75,99a9.68,9.68,0,0,1-5.8,1.45A9.57,9.57,0,0,1,276.6,99V59.85h10.15Z"/><path class="cls-4" d="M317.18,99a9.65,9.65,0,0,1-5.8,1.45A9.52,9.52,0,0,1,307,99V59.85h10.14Z"/><path class="cls-4" d="M347.62,99a9.68,9.68,0,0,1-5.8,1.45A9.57,9.57,0,0,1,337.47,99V59.85h10.15Z"/><rect class="cls-5" x="311.38" y="112.03" width="17.39" height="17.39" rx="3.47"/><rect class="cls-6" x="336.02" y="112.03" width="17.39" height="17.39" rx="3.47"/><rect class="cls-5" x="311.38" y="136.66" width="17.39" height="17.39" rx="3.47"/><rect class="cls-6" x="336.02" y="136.66" width="17.39" height="17.39" rx="3.47"/><rect class="cls-5" x="311.38" y="161.3" width="17.39" height="17.39" rx="3.47"/><rect class="cls-6" x="336.02" y="161.3" width="17.39" height="17.39" rx="3.47"/><rect class="cls-5" x="312.83" y="185.94" width="17.39" height="17.39" rx="3.47"/><rect class="cls-6" x="337.47" y="185.94" width="17.39" height="17.39" rx="3.47"/><rect class="cls-4" x="211.38" y="112.03" width="17.39" height="17.39" rx="3.47"/><rect class="cls-4" x="237.47" y="112.03" width="17.39" height="17.39" rx="3.47"/><rect class="cls-4" x="262.11" y="112.03" width="17.39" height="17.39" rx="3.47"/><rect class="cls-4" x="286.75" y="112.03" width="17.39" height="17.39" rx="3.47"/><rect class="cls-4" x="211.38" y="136.66" width="17.39" height="17.39" rx="3.47"/><rect class="cls-4" x="237.47" y="136.66" width="17.39" height="17.39" rx="3.47"/><rect class="cls-4" x="262.11" y="136.66" width="17.39" height="17.39" rx="3.47"/><rect class="cls-4" x="286.75" y="136.66" width="17.39" height="17.39" rx="3.47"/><rect class="cls-4" x="211.38" y="161.3" width="17.39" height="17.39" rx="3.47"/><rect class="cls-4" x="237.47" y="161.3" width="17.39" height="17.39" rx="3.47"/><rect class="cls-4" x="262.11" y="161.3" width="17.39" height="17.39" rx="3.47"/><rect class="cls-4" x="286.75" y="161.3" width="17.39" height="17.39" rx="3.47"/><rect class="cls-4" x="212.83" y="185.94" width="17.39" height="17.39" rx="3.47"/><rect class="cls-4" x="238.92" y="185.94" width="17.39" height="17.39" rx="3.47"/><rect class="cls-4" x="263.56" y="185.94" width="17.39" height="17.39" rx="3.47"/><rect class="cls-4" x="288.2" y="185.94" width="17.39" height="17.39" rx="3.47"/><rect class="cls-4" x="212.83" y="210.58" width="17.39" height="17.39" rx="3.47"/><rect class="cls-4" x="238.92" y="210.58" width="17.39" height="17.39" rx="3.47"/><rect class="cls-4" x="263.56" y="210.58" width="17.39" height="17.39" rx="3.47"/><rect class="cls-4" x="288.2" y="210.58" width="17.39" height="17.39" rx="3.47"/><rect class="cls-5" x="312.83" y="210.58" width="17.39" height="17.39" rx="3.47"/><rect class="cls-6" x="337.47" y="210.58" width="17.39" height="17.39" rx="3.47"/></g></g></svg>