<svg xmlns="http://www.w3.org/2000/svg" viewBox="0 0 557 320.23"><defs><style>.cls-1{fill:#f9f4f2;}.cls-2{fill:#e6e6e6;}.cls-10,.cls-2,.cls-3,.cls-4,.cls-7,.cls-8{stroke:#000;stroke-miterlimit:10;}.cls-10,.cls-2,.cls-3,.cls-4,.cls-7{stroke-width:0.25px;}.cls-12,.cls-3{fill:#c7b299;}.cls-4{fill:#fff;}.cls-5{fill:#42210b;}.cls-6{fill:#c1272d;}.cls-7{fill:#f2f2dd;}.cls-10,.cls-8{fill:none;}.cls-8{stroke-width:0.5px;}.cls-9{fill:#c0e8dd;}.cls-11{fill:#f7931e;}.cls-13{fill:#ed1c24;}</style></defs><title>skola_1</title><g id="Lager_2" data-name="Lager 2"><g id="Lager_1-2" data-name="Lager 1"><rect class="cls-1" width="557" height="320.23"/><ellipse class="cls-2" cx="65.87" cy="67.86" rx="51.81" ry="44.6"/><path class="cls-3" d="M100.9,56.7a42,42,0,0,1-12.83,22A34.5,34.5,0,0,1,64.7,87.35a30.35,30.35,0,0,1-19.48-8.66C38.1,71.78,31.47,57.09,30.81,54"/><ellipse class="cls-4" cx="66.64" cy="43.18" rx="38.57" ry="29.45"/><ellipse class="cls-5" cx="66.26" cy="46.64" rx="31.94" ry="21.65"/><path class="cls-3" d="M99,63l-4.41,8.38c2.48.48,14.49,2.53,21.58-5.67a18,18,0,0,0,2.34-3.46,10.65,10.65,0,0,0,.78-6.93,9.67,9.67,0,0,0-3.12-5.19,26.24,26.24,0,0,0-4.68-1.74,25.61,25.61,0,0,0-6.23-.86q-2.34,6.06-4.67,12.12a10.78,10.78,0,0,1,7-1.73,10.63,10.63,0,0,1,4.67,1.73h0A14.41,14.41,0,0,1,106,63.1,13.45,13.45,0,0,1,99,63Z"/><rect class="cls-6" x="146.95" y="40.24" width="300" height="231.1" rx="10.21"/><path class="cls-7" d="M165.45,46h131.8a0,0,0,0,1,0,0V267.86a0,0,0,0,1,0,0H166.47a10.57,10.57,0,0,1-10.57-10.57V55.59A9.55,9.55,0,0,1,165.45,46Z"/><path class="cls-7" d="M297.25,46H429.82a8.78,8.78,0,0,1,8.78,8.78V259.6a8.26,8.26,0,0,1-8.26,8.26H297.25a0,0,0,0,1,0,0V46A0,0,0,0,1,297.25,46Z"/><line class="cls-8" x1="179.16" y1="73.91" x2="270.41" y2="75.08"/><line class="cls-8" x1="180.95" y1="88.72" x2="271.9" y2="89.88"/><line class="cls-8" x1="179.16" y1="102.66" x2="270.11" y2="103.82"/><line class="cls-8" x1="178.56" y1="113.69" x2="269.52" y2="114.85"/><line class="cls-8" x1="184.53" y1="124.72" x2="275.48" y2="125.88"/><line class="cls-8" x1="176.18" y1="136.34" x2="267.13" y2="137.5"/><line class="cls-8" x1="180.03" y1="145.43" x2="271.28" y2="146.59"/><line class="cls-8" x1="181.82" y1="160.23" x2="272.77" y2="161.39"/><line class="cls-8" x1="180.03" y1="174.17" x2="270.99" y2="175.33"/><line class="cls-8" x1="179.43" y1="185.2" x2="270.39" y2="186.36"/><line class="cls-8" x1="185.4" y1="196.23" x2="276.35" y2="197.4"/><line class="cls-8" x1="177.05" y1="207.85" x2="268" y2="209.01"/><line class="cls-8" x1="321.31" y1="66.07" x2="412.56" y2="67.23"/><line class="cls-8" x1="323.1" y1="80.87" x2="414.05" y2="82.03"/><line class="cls-8" x1="321.31" y1="94.81" x2="412.26" y2="95.97"/><line class="cls-8" x1="320.71" y1="105.84" x2="411.67" y2="107"/><line class="cls-8" x1="326.68" y1="116.87" x2="417.63" y2="118.03"/><line class="cls-8" x1="318.33" y1="128.49" x2="409.28" y2="129.65"/><line class="cls-8" x1="316.95" y1="142.81" x2="408.2" y2="143.97"/><line class="cls-8" x1="318.74" y1="157.62" x2="409.69" y2="158.78"/><line class="cls-8" x1="316.95" y1="171.55" x2="407.9" y2="172.71"/><line class="cls-8" x1="316.35" y1="182.58" x2="407.31" y2="183.75"/><line class="cls-8" x1="322.32" y1="193.62" x2="413.27" y2="194.78"/><line class="cls-8" x1="313.97" y1="205.23" x2="404.92" y2="206.39"/><path class="cls-9" d="M528.67,212.94,378.4,33.09a4,4,0,0,1,.86-6l11.87-7.9a4.06,4.06,0,0,1,5.36.78L546.75,199.84a4,4,0,0,1-.86,6L534,213.72A4,4,0,0,1,528.67,212.94Z"/><line class="cls-10" x1="405.61" y1="30.92" x2="399.58" y2="34.94"/><line class="cls-10" x1="430.17" y1="60.31" x2="419.19" y2="67.61"/><line class="cls-10" x1="451.99" y1="86.93" x2="445.95" y2="90.95"/><line class="cls-10" x1="476.54" y1="116.32" x2="465.57" y2="123.62"/><line class="cls-10" x1="496.73" y1="139.46" x2="490.69" y2="143.48"/><line class="cls-10" x1="521.28" y1="168.85" x2="510.31" y2="176.15"/><rect class="cls-11" x="65.86" y="136.24" width="6.21" height="143.8" transform="translate(-24.45 9.77) rotate(-6.89)"/><polygon class="cls-12" points="59.87 130.43 57.27 137.13 63.43 136.39 59.87 130.43"/><rect class="cls-13" x="469.53" y="200.17" width="6.71" height="107.82" transform="translate(50.32 -77) rotate(9.83)"/><polygon class="cls-12" points="483.2 196.33 478.78 200.39 485.39 201.53 483.2 196.33"/></g></g></svg>